<svg xmlns="http://www.w3.org/2000/svg" width="19.307" height="18.341" viewBox="0 0 19.307 18.341">
  <g id="Admins" transform="translate(0 0)">
    <path id="Path_93665" data-name="Path 93665" d="M18.995,22.954v.129a1.259,1.259,0,0,1-1.263,1.255H4.256A1.257,1.257,0,0,1,3,23.083v-.274a8.61,8.61,0,0,1,.426-2.478,7.968,7.968,0,0,1,1.335-2.462,8.084,8.084,0,0,1,2-1.754,2.024,2.024,0,0,1,1.368-.2,4.869,4.869,0,0,0,5.744-.008,1.933,1.933,0,0,1,.531-.048,1.312,1.312,0,0,0,.024.249,1.8,1.8,0,0,0-.692,1.424v.74a1.781,1.781,0,0,0,.74,1.456,1.826,1.826,0,0,0,.515,1.5l.523.523a1.782,1.782,0,0,0,1.271.523c.1,0,.193-.008.282-.016a1.8,1.8,0,0,0,1.424.692h.507Z" transform="translate(-3.001 -5.997)" fill="#757575"/>
    <path id="Path_93666" data-name="Path 93666" d="M7.7,7.813a4.212,4.212,0,1,1,8.423,0c0,2.325-1.887,5.033-4.212,5.033S7.7,10.138,7.7,7.813Z" transform="translate(-3.92 -3.602)" fill="#757575"/>
    <path id="Path_93667" data-name="Path 93667" d="M25.141,16.9l-.551-.082a.191.191,0,0,1-.152-.136,2.606,2.606,0,0,0-.225-.529.187.187,0,0,1,.009-.206l.317-.428a.193.193,0,0,0-.019-.25L24,14.75a.193.193,0,0,0-.25-.019l-.437.323a.193.193,0,0,1-.206.009,2.523,2.523,0,0,0-.548-.225.2.2,0,0,1-.139-.152l-.076-.5a.2.2,0,0,0-.193-.165h-.735a.194.194,0,0,0-.19.165l-.073.5a.194.194,0,0,1-.143.155,2.393,2.393,0,0,0-.573.241.191.191,0,0,1-.212-.013l-.38-.282a.193.193,0,0,0-.25.019l-.523.523a.193.193,0,0,0-.019.25l.285.387a.192.192,0,0,1,.01.209,2.485,2.485,0,0,0-.247.6.193.193,0,0,1-.155.146l-.44.063a.194.194,0,0,0-.165.19v.741a.194.194,0,0,0,.165.19l.456.07a.191.191,0,0,1,.155.136,2.651,2.651,0,0,0,.263.605.191.191,0,0,1-.009.215l-.263.355a.193.193,0,0,0,.019.25l.523.523a.193.193,0,0,0,.25.019l.387-.285a.194.194,0,0,1,.206-.013,2.635,2.635,0,0,0,.6.231.186.186,0,0,1,.143.158l.07.456a.194.194,0,0,0,.19.165h.741a.194.194,0,0,0,.19-.165l.073-.51a.2.2,0,0,1,.136-.152,2.512,2.512,0,0,0,.558-.247.191.191,0,0,1,.212.006l.4.3a.189.189,0,0,0,.25-.016l.523-.523a.193.193,0,0,0,.019-.25l-.323-.44a.183.183,0,0,1-.013-.2,2.65,2.65,0,0,0,.209-.548.19.19,0,0,1,.152-.143l.523-.079a.191.191,0,0,0,.165-.19v-.735a.191.191,0,0,0-.165-.19Zm-3.32,1.858A1.259,1.259,0,1,1,23.08,17.5,1.257,1.257,0,0,1,21.821,18.763Z" transform="translate(-5.998 -5.638)" fill="#757575"/>
  </g>
</svg>
