<svg xmlns="http://www.w3.org/2000/svg" width="15.596" height="16.961" viewBox="0 0 15.596 16.961">
  <g id="dashboard_gray" data-name="dashboard gray" transform="translate(-87 -176.62)">
    <g id="add-event_9311187" transform="translate(84 175.37)">
      <path id="Path_93701" data-name="Path 93701" d="M13.731,3.051V1.835a.585.585,0,1,0-1.17,0V3H7.493V1.835a.585.585,0,1,0-1.17,0V3.051A3.312,3.312,0,0,0,3.04,6.366a.392.392,0,0,0,.39.413H16.624a.387.387,0,0,0,.39-.413,3.312,3.312,0,0,0-3.283-3.314Z" transform="translate(-0.009 0)" fill="#b8bcc2"/>
      <path id="Path_93702" data-name="Path 93702" d="M16.257,9.84H3.78a.782.782,0,0,0-.78.78v4.8c0,2.339,1.17,3.9,3.9,3.9h3.844a.778.778,0,0,0,.741-1.029,4.541,4.541,0,0,1-.289-1.31,4.3,4.3,0,0,1,4.289-4.289,3.828,3.828,0,0,1,.671.055.776.776,0,0,0,.889-.764V10.628A.8.8,0,0,0,16.257,9.84ZM7.843,15.977a.9.9,0,0,1-.257.164.735.735,0,0,1-.593,0,.9.9,0,0,1-.257-.164.82.82,0,0,1-.226-.554.956.956,0,0,1,.016-.148.47.47,0,0,1,.047-.148.59.59,0,0,1,.07-.14,1.228,1.228,0,0,1,.094-.117.9.9,0,0,1,.257-.164.78.78,0,0,1,.593,0,.9.9,0,0,1,.257.164,1.229,1.229,0,0,1,.094.117.59.59,0,0,1,.07.14.47.47,0,0,1,.047.148.955.955,0,0,1,.016.148A.82.82,0,0,1,7.843,15.977Zm0-2.729a.9.9,0,0,1-.257.164.735.735,0,0,1-.593,0,.805.805,0,0,1-.257-.164.791.791,0,0,1,0-1.107.9.9,0,0,1,.257-.164.78.78,0,0,1,.593,0,.9.9,0,0,1,.257.164,1.229,1.229,0,0,1,.094.117.591.591,0,0,1,.07.14.5.5,0,0,1,.047.14,1.172,1.172,0,0,1,.016.156A.82.82,0,0,1,7.843,13.248Zm2.729,0a.805.805,0,0,1-.554.226.776.776,0,0,1-.3-.062.805.805,0,0,1-.257-.164.82.82,0,0,1-.226-.554,1.172,1.172,0,0,1,.016-.156A.5.5,0,0,1,9.3,12.4a.591.591,0,0,1,.07-.14l.094-.117a.816.816,0,0,1,1.107,0l.094.117a.591.591,0,0,1,.07.14.5.5,0,0,1,.047.14,1.172,1.172,0,0,1,.016.156.82.82,0,0,1-.226.554Z" transform="translate(0 -1.891)" fill="#b8bcc2"/>
      <path id="Path_93703" data-name="Path 93703" d="M20.326,15.912a3.121,3.121,0,1,0,0,4.414A3.125,3.125,0,0,0,20.326,15.912Zm-.593,2.644a.558.558,0,0,1-.413.172h-.577v.608a.586.586,0,0,1-.585.585.589.589,0,0,1-.585-.585v-.608h-.585a.585.585,0,1,1,0-1.17h.585V17a.585.585,0,1,1,1.17,0v.554h.577a.584.584,0,0,1,.585.585A.558.558,0,0,1,19.733,18.556Z" transform="translate(-2.642 -3.028)" fill="#b8bcc2"/>
    </g>
  </g>
</svg>
