<svg id="add-event_9311187" xmlns="http://www.w3.org/2000/svg" width="14.643" height="15.924" viewBox="0 0 14.643 15.924">
  <path id="Path_93701" data-name="Path 93701" d="M13.077,2.941V1.8a.549.549,0,1,0-1.1,0V2.9H7.22V1.8a.549.549,0,1,0-1.1,0V2.941A3.11,3.11,0,0,0,3.04,6.053a.368.368,0,0,0,.366.388H15.794a.363.363,0,0,0,.366-.388,3.11,3.11,0,0,0-3.082-3.112Z" transform="translate(-3.01 -1.25)" fill="#d32f2f"/>
  <path id="Path_93702" data-name="Path 93702" d="M15.446,9.84H3.732A.734.734,0,0,0,3,10.572v4.51c0,2.2,1.1,3.661,3.661,3.661H10.27a.731.731,0,0,0,.7-.966,4.263,4.263,0,0,1-.271-1.23,4.034,4.034,0,0,1,4.027-4.027,3.594,3.594,0,0,1,.63.051.729.729,0,0,0,.835-.717V10.58A.747.747,0,0,0,15.446,9.84ZM7.547,15.6a.845.845,0,0,1-.242.154.69.69,0,0,1-.556,0,.845.845,0,0,1-.242-.154.77.77,0,0,1-.212-.52.9.9,0,0,1,.015-.139.442.442,0,0,1,.044-.139.554.554,0,0,1,.066-.132,1.154,1.154,0,0,1,.088-.11.845.845,0,0,1,.242-.154.732.732,0,0,1,.556,0,.845.845,0,0,1,.242.154,1.154,1.154,0,0,1,.088.11A.554.554,0,0,1,7.7,14.8a.442.442,0,0,1,.044.139.9.9,0,0,1,.015.139A.77.77,0,0,1,7.547,15.6Zm0-2.562a.845.845,0,0,1-.242.154.69.69,0,0,1-.556,0,.756.756,0,0,1-.242-.154.742.742,0,0,1,0-1.04.845.845,0,0,1,.242-.154.732.732,0,0,1,.556,0A.845.845,0,0,1,7.547,12a1.154,1.154,0,0,1,.088.11.554.554,0,0,1,.066.132.465.465,0,0,1,.044.132,1.1,1.1,0,0,1,.015.146A.77.77,0,0,1,7.547,13.04Zm2.562,0a.756.756,0,0,1-.52.212.729.729,0,0,1-.278-.059.756.756,0,0,1-.242-.154.77.77,0,0,1-.212-.52,1.1,1.1,0,0,1,.015-.146.465.465,0,0,1,.044-.132.554.554,0,0,1,.066-.132L9.069,12a.767.767,0,0,1,1.04,0l.088.11a.554.554,0,0,1,.066.132.465.465,0,0,1,.044.132,1.1,1.1,0,0,1,.015.146.77.77,0,0,1-.212.52Z" transform="translate(-3 -3.551)" fill="#d32f2f"/>
  <path id="Path_93703" data-name="Path 93703" d="M20,15.857A2.93,2.93,0,1,0,20,20,2.934,2.934,0,0,0,20,15.857Zm-.556,2.482a.524.524,0,0,1-.388.161h-.542v.571a.55.55,0,0,1-.549.549.553.553,0,0,1-.549-.549V18.5h-.549a.549.549,0,0,1,0-1.1h.549v-.52a.549.549,0,1,1,1.1,0v.52h.542a.548.548,0,0,1,.549.549A.524.524,0,0,1,19.444,18.339Z" transform="translate(-6.214 -4.933)" fill="#d32f2f"/>
</svg>
