<svg id="pharmaceutical-innovation_12121454" xmlns="http://www.w3.org/2000/svg" width="51.167" height="72.711" viewBox="0 0 51.167 72.711">
  <path id="Path_86629" data-name="Path 86629" d="M5.275,12.25a14.73,14.73,0,0,0,29.351,0Z" transform="translate(5.633 46.996)" fill="#e8ac46"/>
  <path id="Path_86630" data-name="Path 86630" d="M13.737,52.417H43.931a19.3,19.3,0,0,1,4.4-9.115,25.352,25.352,0,0,0,6.088-16.468,25.584,25.584,0,0,0-51.167,0A25.327,25.327,0,0,0,9.333,43.291a19.348,19.348,0,0,1,4.4,9.126Zm4.325-29.623h6.733V16.062h8.079v6.733h6.733v8.079H32.873v6.733H24.794V30.873H18.062Z" transform="translate(-3.25 -1.25)" fill="#e8ac46"/>
</svg>
