<svg id="calendar_7771848" xmlns="http://www.w3.org/2000/svg" width="70.094" height="72.711" viewBox="0 0 70.094 72.711">
  <path id="Path_86624" data-name="Path 86624" d="M13.091,4.692a2.692,2.692,0,0,0-5.384,0V6.065h5.384Z" transform="translate(5.806 -2)" fill="#75b97c"/>
  <path id="Path_86625" data-name="Path 86625" d="M23.488,4.692a2.692,2.692,0,0,0-5.384,0V6.065h5.384V4.692Z" transform="translate(22.408 -2)" fill="#75b97c"/>
  <path id="Path_86626" data-name="Path 86626" d="M61.886,10.429a6.853,6.853,0,0,0-6.837-6.864H48.4v11.09a2.683,2.683,0,0,1-2.692,2.692h-1.05a2.688,2.688,0,0,1-1.642-4.819V3.565H21.4v11.09a2.683,2.683,0,0,1-2.692,2.692h-1.05a2.688,2.688,0,0,1-1.642-4.819V3.565H9.341A6.853,6.853,0,0,0,2.5,10.429V20.954H61.886V10.429Z" transform="translate(-2.504 0.499)" fill="#75b97c"/>
  <path id="Path_86627" data-name="Path 86627" d="M44.954,23.021A11.144,11.144,0,0,1,45.87,20.3a2.73,2.73,0,0,1-.781-1.911A2.7,2.7,0,0,1,47.781,15.7a2.617,2.617,0,0,1,1.427.431,11.792,11.792,0,0,1,7.564-2.692,11.962,11.962,0,0,1,5.114,1.131V12.335H2.5V38.042a6.847,6.847,0,0,0,6.837,6.837H38.117V37.4A18.659,18.659,0,0,1,44.954,23.021ZM16.609,36.131A2.692,2.692,0,1,1,19.3,33.439a2.7,2.7,0,0,1-2.692,2.692Zm0-15.047A2.692,2.692,0,1,1,19.3,18.391a2.7,2.7,0,0,1-2.692,2.692ZM32.2,36.131a2.692,2.692,0,1,1,2.692-2.692A2.683,2.683,0,0,1,32.2,36.131Zm0-15.047a2.692,2.692,0,1,1,2.692-2.692A2.7,2.7,0,0,1,32.2,21.083Z" transform="translate(-2.504 14.503)" fill="#75b97c"/>
  <path id="Path_86628" data-name="Path 86628" d="M46.405,44.878V33.407a13.253,13.253,0,0,0-6.622-11.44v-.458a6.676,6.676,0,0,0-13.352,0v.485a13.274,13.274,0,0,0-6.595,11.413V44.881a2.676,2.676,0,0,0,.179,5.348l10.4,0v1.3a2.692,2.692,0,0,0,5.384,0v-1.3l10.444,0a2.677,2.677,0,0,0,.163-5.351Z" transform="translate(21.16 18.492)" fill="#75b97c"/>
</svg>
