<svg xmlns="http://www.w3.org/2000/svg" width="60.747" height="60.952" viewBox="0 0 60.747 60.952">
  <path id="business-growth_18665870" d="M22.515,39.138h5.922a2.492,2.492,0,0,1,2.486,2.486V61.468a2.492,2.492,0,0,1-2.486,2.486H22.515a2.491,2.491,0,0,1-2.486-2.486V41.625A2.491,2.491,0,0,1,22.515,39.138ZM39,32h5.922a2.492,2.492,0,0,1,2.486,2.486V61.467a2.492,2.492,0,0,1-2.486,2.486H39a2.492,2.492,0,0,1-2.486-2.486V34.491A2.492,2.492,0,0,1,39,32Zm7.364-21.786a1.021,1.021,0,0,1-.07,1.525C34.031,21.815,21.833,26.65,5.982,27.32a2.952,2.952,0,0,0-2.829,3l0,.274a2.94,2.94,0,0,0,3.075,2.9c17.529-.742,31.183-6.263,44.647-17.521a1.02,1.02,0,0,1,1.379.057l2.018,1.989A2.266,2.266,0,0,0,58.1,16.777L59.968,5.644a2.263,2.263,0,0,0-2.64-2.6L46.222,5.06A2.264,2.264,0,0,0,45.035,8.9Zm9.124,14.653h5.922A2.492,2.492,0,0,1,63.9,27.358v34.11a2.492,2.492,0,0,1-2.486,2.486H55.491a2.492,2.492,0,0,1-2.486-2.486V27.357A2.493,2.493,0,0,1,55.491,24.872ZM6.026,46.272h5.922a2.492,2.492,0,0,1,2.486,2.486v12.71a2.492,2.492,0,0,1-2.486,2.486H6.026A2.492,2.492,0,0,1,3.54,61.467V48.758a2.493,2.493,0,0,1,2.486-2.486Z" transform="translate(-3.152 -3.002)" fill="#648ddb" fill-rule="evenodd"/>
</svg>
