<svg xmlns="http://www.w3.org/2000/svg" width="19.938" height="18.961" viewBox="0 0 19.938 18.961">
  <g id="Chat" transform="translate(0 -12.5)">
    <g id="Layer_2_copy_11" transform="translate(0 12.5)">
      <g id="_53" transform="translate(0 0)">
        <path id="Path_93686" data-name="Path 93686" d="M2.251,184.812V180.4a2.657,2.657,0,0,0-2.239,2.621v5.292L0,191.389A1.426,1.426,0,0,0,2.434,192.4l1.332-1.332H9.887a2.65,2.65,0,0,0,2.574-2.013H6.5a4.245,4.245,0,0,1-4.245-4.245Z" transform="translate(0 -173.862)" fill="#fff"/>
        <path id="Path_93687" data-name="Path 93687" d="M91.137,23.31v-7.2a3.611,3.611,0,0,0-3.606-3.61H77.71a3.61,3.61,0,0,0-3.61,3.61v7.337a3.61,3.61,0,0,0,3.61,3.61h8.322l1.811,1.811a1.939,1.939,0,0,0,3.31-1.379Zm-6.78-1.421a.935.935,0,0,1-.935.935H79.505a.932.932,0,0,1-.935-.935v-.343a.932.932,0,0,1,.935-.935h3.918a.932.932,0,0,1,.935.935Zm2.317-4.042a1.109,1.109,0,0,1-1.11,1.11H79.676a1.108,1.108,0,0,1,0-2.216h5.888a1.1,1.1,0,0,1,1.11,1.106Z" transform="translate(-71.214 -12.5)" fill="#fff"/>
      </g>
    </g>
  </g>
</svg>
