<svg xmlns="http://www.w3.org/2000/svg" width="20" height="20" viewBox="0 0 20 20">
  <g id="Dashboard" transform="translate(-87 -178)">
    <path id="dashboard_8839240" d="M15,2a2,2,0,0,0-2,2v8a2,2,0,0,0,2,2h5a2,2,0,0,0,2-2V4a2,2,0,0,0-2-2ZM9,22ZM2,4A2,2,0,0,1,4,2H9a2,2,0,0,1,2,2V6A2,2,0,0,1,9,8H4A2,2,0,0,1,2,6ZM15,16a2,2,0,0,0-2,2v2a2,2,0,0,0,2,2h5a2,2,0,0,0,2-2V18a2,2,0,0,0-2-2Z" transform="translate(85 176)" fill="#757575" fill-rule="evenodd"/>
    <path id="dashboard_8839240-2" data-name="dashboard_8839240" d="M4,10a2,2,0,0,0-2,2v8a2,2,0,0,0,2,2H9a2,2,0,0,0,2-2V12a2,2,0,0,0-2-2Z" transform="translate(85 176)" fill="#757575" fill-rule="evenodd"/>
  </g>
</svg>
