<svg xmlns="http://www.w3.org/2000/svg" width="15.582" height="15.582" viewBox="0 0 15.582 15.582">
  <g id="dashboard_gray" data-name="dashboard gray" transform="translate(-87 -178)">
    <path id="dashboard_8839240" d="M12.128,2A1.558,1.558,0,0,0,10.57,3.558V9.791a1.558,1.558,0,0,0,1.558,1.558h3.9a1.558,1.558,0,0,0,1.558-1.558V3.558A1.558,1.558,0,0,0,16.024,2ZM7.454,17.582ZM2,3.558A1.558,1.558,0,0,1,3.558,2h3.9A1.558,1.558,0,0,1,9.012,3.558V5.116A1.558,1.558,0,0,1,7.454,6.675h-3.9A1.558,1.558,0,0,1,2,5.116Zm10.128,9.349a1.558,1.558,0,0,0-1.558,1.558v1.558a1.558,1.558,0,0,0,1.558,1.558h3.9a1.558,1.558,0,0,0,1.558-1.558V14.466a1.558,1.558,0,0,0-1.558-1.558Z" transform="translate(85 176)" fill="#b8bcc2" fill-rule="evenodd"/>
    <path id="dashboard_8839240-2" data-name="dashboard_8839240" d="M3.558,10A1.558,1.558,0,0,0,2,11.558v6.233a1.558,1.558,0,0,0,1.558,1.558h3.9a1.558,1.558,0,0,0,1.558-1.558V11.558A1.558,1.558,0,0,0,7.454,10Z" transform="translate(85 174.233)" fill="#b8bcc2" fill-rule="evenodd"/>
  </g>
</svg>
