<svg xmlns="http://www.w3.org/2000/svg" width="25.397" height="25.398" viewBox="0 0 25.397 25.398">
  <path id="Path_93663" data-name="Path 93663" d="M7.9,8.8a6.8,6.8,0,1,1,6.8,6.8A6.8,6.8,0,0,1,7.9,8.8ZM9.256,21.049a.907.907,0,1,0,.907-.907A.907.907,0,0,0,9.256,21.049ZM20.476,15.2l-.336.281V19.4a2.721,2.721,0,0,1,1.814,2.558v.907a.907.907,0,1,1-1.814,0v-.907a.907.907,0,1,0-1.814,0v.907a.907.907,0,1,1-1.814,0v-.907A2.721,2.721,0,0,1,18.327,19.4V16.622a8.644,8.644,0,0,1-7.256,0v1.869a2.721,2.721,0,1,1-1.814,0V15.479L8.921,15.2A9.978,9.978,0,0,0,2,24.677,2.721,2.721,0,0,0,4.721,27.4H24.676A2.721,2.721,0,0,0,27.4,24.677,9.978,9.978,0,0,0,20.477,15.2Z" transform="translate(-2 -2)" fill="#fff"/>
</svg>
