<svg xmlns="http://www.w3.org/2000/svg" width="20.415" height="20.416" viewBox="0 0 20.415 20.416">
  <g id="Doctors" transform="translate(0 0)">
    <path id="Path_93663" data-name="Path 93663" d="M6.739,7.469a5.468,5.468,0,1,1,5.468,5.469A5.468,5.468,0,0,1,6.739,7.469Zm1.094,9.843a.729.729,0,1,0,.729-.729A.729.729,0,0,0,7.833,17.312Zm9.019-4.7-.27.226v3.15a2.187,2.187,0,0,1,1.458,2.056v.729a.729.729,0,1,1-1.458,0v-.729a.729.729,0,1,0-1.458,0v.729a.729.729,0,1,1-1.458,0v-.729a2.187,2.187,0,0,1,1.458-2.056V13.754a6.948,6.948,0,0,1-5.833,0v1.5a2.187,2.187,0,1,1-1.458,0V12.835l-.27-.226A8.021,8.021,0,0,0,2,20.229a2.187,2.187,0,0,0,2.187,2.187h16.04a2.187,2.187,0,0,0,2.187-2.187,8.021,8.021,0,0,0-5.563-7.62Z" transform="translate(-2 -2)" fill="#757575"/>
  </g>
</svg>
