<svg xmlns="http://www.w3.org/2000/svg" width="16.866" height="18.342" viewBox="0 0 16.866 18.342">
  <g id="add-event_9311187" transform="translate(-3 -1.25)">
    <path id="Path_93701" data-name="Path 93701" d="M14.6,3.2V1.882a.632.632,0,0,0-1.265,0V3.147H7.855V1.882a.632.632,0,0,0-1.265,0V3.2A3.582,3.582,0,0,0,3.04,6.782a.424.424,0,0,0,.422.447H17.73a.418.418,0,0,0,.422-.447A3.582,3.582,0,0,0,14.6,3.2Z" transform="translate(-0.006)" fill="#fff"/>
    <path id="Path_93702" data-name="Path 93702" d="M17.336,9.84H3.843A.846.846,0,0,0,3,10.683v5.195c0,2.53,1.265,4.216,4.216,4.216h4.157a.842.842,0,0,0,.8-1.113,4.911,4.911,0,0,1-.312-1.417A4.646,4.646,0,0,1,16.5,12.927a4.14,4.14,0,0,1,.725.059.839.839,0,0,0,.961-.826V10.692A.86.86,0,0,0,17.336,9.84Zm-9.1,6.637a.974.974,0,0,1-.278.177.795.795,0,0,1-.641,0,.974.974,0,0,1-.278-.177.887.887,0,0,1-.245-.6,1.033,1.033,0,0,1,.017-.16.509.509,0,0,1,.051-.16.639.639,0,0,1,.076-.152,1.329,1.329,0,0,1,.1-.126.974.974,0,0,1,.278-.177.843.843,0,0,1,.641,0,.974.974,0,0,1,.278.177,1.329,1.329,0,0,1,.1.126.639.639,0,0,1,.076.152.509.509,0,0,1,.051.16,1.033,1.033,0,0,1,.017.16A.887.887,0,0,1,8.237,16.477Zm0-2.952a.974.974,0,0,1-.278.177.795.795,0,0,1-.641,0,.871.871,0,0,1-.278-.177.855.855,0,0,1,0-1.2.974.974,0,0,1,.278-.177.843.843,0,0,1,.641,0,.974.974,0,0,1,.278.177,1.329,1.329,0,0,1,.1.126.639.639,0,0,1,.076.152.536.536,0,0,1,.051.152,1.267,1.267,0,0,1,.017.169A.887.887,0,0,1,8.237,13.525Zm2.952,0a.871.871,0,0,1-.6.245.839.839,0,0,1-.32-.067.871.871,0,0,1-.278-.177.887.887,0,0,1-.245-.6,1.267,1.267,0,0,1,.017-.169.536.536,0,0,1,.051-.152.639.639,0,0,1,.076-.152l.1-.126a.883.883,0,0,1,1.2,0l.1.126a.639.639,0,0,1,.076.152.536.536,0,0,1,.051.152,1.267,1.267,0,0,1,.017.169.887.887,0,0,1-.245.6Z" transform="translate(0 -1.346)" fill="#fff"/>
    <path id="Path_93703" data-name="Path 93703" d="M20.76,15.987a3.375,3.375,0,1,0,0,4.773A3.38,3.38,0,0,0,20.76,15.987Zm-.641,2.859a.6.6,0,0,1-.447.186h-.624v.658a.633.633,0,0,1-.632.632.637.637,0,0,1-.632-.632v-.658H17.15a.632.632,0,1,1,0-1.265h.632v-.6a.632.632,0,0,1,1.265,0v.6h.624a.632.632,0,0,1,.632.632A.6.6,0,0,1,20.119,18.845Z" transform="translate(-1.881 -2.155)" fill="#fff"/>
  </g>
</svg>
