<svg xmlns="http://www.w3.org/2000/svg" width="265.232" height="312.4" viewBox="0 0 265.232 312.4">
  <path id="Path_13047" data-name="Path 13047" d="M830.87,485.9c0,13.33-.16,26.66,0,40,.53,36.85-12,69.11-34.86,97.45-23.78,29.55-54.77,49.08-90,62.32-5.53,2.08-10.88,1.74-16.47-.45-38-14.86-70.68-36.8-94.67-70.47-19.67-27.6-28.79-58.49-28.9-92.18-.09-28.15,0-56.31-.06-84.47,0-11.16,2.51-15,13.11-19.11q38-14.87,76.1-29.55c9.9-3.84,20-7.2,29.65-11.66,9-4.16,17.47-4,26.45-.47,22.69,9,45.46,17.71,68.2,26.52,12.39,4.79,24.85,9.4,37.17,14.35,12.7,5.1,14.73,8.73,14.54,22.25-.21,15.16,0,30.32,0,45.48Zm-73.7,43c-7.47,24-14.88,47.55-22.11,71.18-1.43,4.67-3.26,8.52-8.83,8.5-4.58,0-7.47-3.06-8.65-9.35-1.56-8.32-2.71-16.72-4.17-25.06q-7.21-41-14.52-81.93c-.92-5.2-1.72-10.42-2.7-16.37-.84,1.14-1.12,1.37-1.2,1.66q-12.39,43.07-24.73,86.13c-1.27,4.43-3.27,8.25-8.64,8.14-5-.11-7.42-3.43-9-7.89-4.42-12.17-9.08-24.25-13.68-36.35-.6-1.57-1.4-3.07-2.33-5.1a18.909,18.909,0,0,0-2.09,2.56c-3.37,6.92-8.77,8.9-16.38,8.39-10.57-.71-21.23-.18-32.14-.18,0,1.33-.08,2.46,0,3.58,1.79,19.82,7.32,38.49,17.58,55.61,20.88,34.8,52,57.31,88.5,73.23a14,14,0,0,0,11.51.15C735,653.4,762,635,782.79,608c17.31-22.48,28.57-47.33,29.1-76,.57-30.49,0-61,.09-91.51,0-2.8-.83-4.16-3.4-5.14-34.9-13.34-69.73-26.87-104.71-40-3.24-1.22-7.54-.76-11,.14-4.78,1.24-9.22,3.75-13.87,5.54q-44.41,17.07-88.86,34.09c-2.44.94-5.24,1.25-5.15,5.45.44,20.65.49,41.32.66,62v13.16c6.49,0,12.42-.8,18,.16,12.34,2.13,20.82-1.64,25-13.8a9.364,9.364,0,0,1,.76-1.28c2-3.64,4.65-6,9.12-5.64s6.81,2.94,8.34,6.82c3.59,9.11,7.28,18.19,10.94,27.28.93,2.3,1.89,4.59,3.27,8,2.54-9.22,4.73-17.17,6.93-25.13q10.07-36.48,20.16-73c1.87-6.71,4.71-8.67,10.62-8,5.39.64,6.93,4.63,7.74,9.05q8.7,47.3,17.28,94.62c1.6,8.85,3,17.72,4.55,26.59a3.1,3.1,0,0,0,1.64-2q5.91-19,11.78-38c1.7-5.49,5.37-8.88,11.08-9.34,7.28-.59,14.61-.91,21.92-1,6.51,0,10,3.17,10.05,8.52.06,5.77-3.81,9.25-10.53,9.33-5.47.09-10.96.03-17.13.03Z" transform="translate(-565.91 -374.66)" fill="#ca211a"/>
</svg>
