<svg xmlns="http://www.w3.org/2000/svg" width="96.2" height="92.018" viewBox="0 0 96.2 92.018">
  <g id="Group_59322" data-name="Group 59322" transform="translate(-423 -277)">
    <rect id="closeup-portrait-satisfied-positive-smiling-young-man-posing-isolated-light-grey-wall-wearing-beige-casual-shirt-black-hat-fashionable-spectacles-yout" width="96.2" height="92.018" rx="7" transform="translate(423 277)" fill="#ffcdd2"/>
    <path id="department-svgrepo-com" d="M38.311,3.34a2.535,2.535,0,0,1,2.195,1.267L51.714,24.019a2.533,2.533,0,0,1,0,2.534L40.506,45.965a2.534,2.534,0,0,1-2.195,1.267H15.9A2.534,2.534,0,0,1,13.7,45.965L2.494,26.553a2.534,2.534,0,0,1,0-2.534L13.7,4.607A2.534,2.534,0,0,1,15.9,3.34Z" transform="translate(443.535 297.838)" fill="none" stroke="#b71c1c" stroke-width="3"/>
  </g>
</svg>
