<svg xmlns="http://www.w3.org/2000/svg" width="18.342" height="18.342" viewBox="0 0 18.342 18.342">
  <g id="hospital_building" transform="translate(-1 -1)">
    <path id="Path_93704" data-name="Path 93704" d="M2.834,5.891H4.057V19.342H1.611A.613.613,0,0,1,1,18.73V7.725A1.839,1.839,0,0,1,2.834,5.891Zm14.673,0H16.285V19.342H18.73a.613.613,0,0,0,.611-.611V7.725A1.839,1.839,0,0,0,17.508,5.891Zm-6.114,0h-.611V5.28a.611.611,0,0,0-1.223,0v.611H8.948a.611.611,0,1,0,0,1.223H9.56v.611a.611.611,0,1,0,1.223,0V7.114h.611a.611.611,0,1,0,0-1.223Zm3.668-3.057V19.342H11.394V17.508a.613.613,0,0,0-.611-.611H9.56a.613.613,0,0,0-.611.611v1.834H5.28V2.834A1.839,1.839,0,0,1,7.114,1h6.114A1.839,1.839,0,0,1,15.062,2.834ZM8.337,14.451a.611.611,0,1,0-.611.611A.611.611,0,0,0,8.337,14.451Zm0-2.446a.611.611,0,1,0-.611.611A.611.611,0,0,0,8.337,12.005Zm2.446,2.446a.611.611,0,1,0-.611.611A.611.611,0,0,0,10.782,14.451Zm0-2.446a.611.611,0,1,0-.611.611A.611.611,0,0,0,10.782,12.005Zm2.446,2.446a.611.611,0,1,0-.611.611A.611.611,0,0,0,13.228,14.451Zm0-2.446a.611.611,0,1,0-.611.611A.611.611,0,0,0,13.228,12.005Zm0-5.5a2.91,2.91,0,0,0-.061-.611,3.058,3.058,0,0,0-5.992,0,2.87,2.87,0,0,0-.061.611,3.057,3.057,0,1,0,6.114,0Z" fill="#fff"/>
  </g>
</svg>
