<svg id="hospital_4225066" xmlns="http://www.w3.org/2000/svg" width="25.397" height="25.397" viewBox="0 0 25.397 25.397">
  <g id="Group_58815" data-name="Group 58815" transform="translate(0 9.98)">
    <path id="Path_93688" data-name="Path 93688" d="M4.126,201.19v15.418H.744A.744.744,0,0,1,0,215.863v-3.5H1.894a.744.744,0,0,0,0-1.488H0v-1.488H1.894a.744.744,0,0,0,0-1.488H0v-1.488H1.894a.744.744,0,0,0,0-1.488H0v-2.985a.744.744,0,0,1,.744-.744Z" transform="translate(0 -201.19)" fill="#fff"/>
  </g>
  <g id="Group_58816" data-name="Group 58816" transform="translate(21.271 9.98)">
    <path id="Path_93689" data-name="Path 93689" d="M430.308,205.663a.744.744,0,0,0,.744.744h1.894V207.9h-1.894a.744.744,0,1,0,0,1.488h1.894v1.488h-1.894a.744.744,0,1,0,0,1.488h1.894v3.5a.744.744,0,0,1-.744.744H428.82V201.19H432.2a.744.744,0,0,1,.744.744v2.985h-1.894A.744.744,0,0,0,430.308,205.663Z" transform="translate(-428.82 -201.19)" fill="#fff"/>
  </g>
  <g id="Group_58817" data-name="Group 58817" transform="translate(5.614 3.472)">
    <path id="Path_93690" data-name="Path 93690" d="M198.18,366.36H200.3v7.224H198.18Z" transform="translate(-193.964 -351.659)" fill="#fff"/>
    <path id="Path_93691" data-name="Path 93691" d="M271,366.36h2.124v7.224H271Z" transform="translate(-263.171 -351.659)" fill="#fff"/>
    <path id="Path_93692" data-name="Path 93692" d="M126.6,70h-1.087v2.314a3.235,3.235,0,0,1-3.231,3.231h-4.044a3.235,3.235,0,0,1-3.231-3.231V70h-1.087a.744.744,0,0,0-.744.744V91.925h2.728V83.957a.744.744,0,0,1,.744-.744h7.224a.744.744,0,0,1,.744.744v7.968h2.728V70.744A.744.744,0,0,0,126.6,70Zm-7.829,11.724h-2.124a.744.744,0,1,1,0-1.488h2.124a.744.744,0,0,1,0,1.488Zm0-2.976h-2.124a.744.744,0,1,1,0-1.488h2.124a.744.744,0,0,1,0,1.488Zm5.1,2.976h-2.124a.744.744,0,0,1,0-1.488h2.124a.744.744,0,1,1,0,1.488Zm0-2.976h-2.124a.744.744,0,0,1,0-1.488h2.124a.744.744,0,1,1,0,1.488Z" transform="translate(-113.18 -70)" fill="#fff"/>
  </g>
  <g id="Group_58819" data-name="Group 58819" transform="translate(8.934)">
    <g id="Group_58818" data-name="Group 58818">
      <path id="Path_93693" data-name="Path 93693" d="M185.887,0h-4.044A1.745,1.745,0,0,0,180.1,1.743V5.786a1.745,1.745,0,0,0,1.743,1.743h4.044a1.745,1.745,0,0,0,1.743-1.743V1.743A1.745,1.745,0,0,0,185.887,0ZM185,4.509h-.388V4.9a.744.744,0,1,1-1.488,0V4.509h-.388a.744.744,0,0,1,0-1.488h.388V2.633a.744.744,0,1,1,1.488,0v.388H185a.744.744,0,0,1,0,1.488Z" transform="translate(-180.1)" fill="#fff"/>
    </g>
  </g>
</svg>
