<svg xmlns="http://www.w3.org/2000/svg" width="57" height="57" viewBox="0 0 57 57">
  <g id="In-Person" transform="translate(-63 -718)">
    <rect id="Rectangle_560" data-name="Rectangle 560" width="57" height="57" rx="28.5" transform="translate(63 718)" fill="#ffe5e8"/>
    <g id="conversation_18057704" transform="translate(80 733)">
      <g id="Group_1669" data-name="Group 1669" transform="translate(0 13.446)">
        <path id="Path_5822" data-name="Path 5822" d="M36.446,382.472h7.575a1.283,1.283,0,0,0,1.281-1.281v-2.733a2.749,2.749,0,0,0-2.836-2.647H38a2.749,2.749,0,0,0-2.836,2.647v2.733A1.283,1.283,0,0,0,36.446,382.472Z" transform="translate(-35.165 -369.635)" fill="#b71c1c"/>
        <path id="Path_5823" data-name="Path 5823" d="M333.969,264.292a2.657,2.657,0,1,0,2.657-2.658A2.66,2.66,0,0,0,333.969,264.292Z" transform="translate(-317.81 -261.634)" fill="#b71c1c"/>
        <path id="Path_5824" data-name="Path 5824" d="M82.412,266.948a2.657,2.657,0,1,0-2.658-2.657A2.66,2.66,0,0,0,82.412,266.948Z" transform="translate(-77.343 -261.633)" fill="#b71c1c"/>
      </g>
      <path id="Path_5825" data-name="Path 5825" d="M214.378,62.741l-.479.384a1.523,1.523,0,0,0,1.477,1.159h2.864l2.344,1.883a.189.189,0,0,0,.308-.148V64.285h.722a1.523,1.523,0,0,0,1.523-1.521v-5.7a1.524,1.524,0,0,0-1.523-1.523h-.021v4.917a2.281,2.281,0,0,1-2.278,2.278Z" transform="translate(-204.233 -53.245)" fill="#d32f2f"/>
      <path id="Path_5826" data-name="Path 5826" d="M292.215,375.81a2.749,2.749,0,0,0-2.836,2.647v2.733a1.283,1.283,0,0,0,1.281,1.281h7.575a1.283,1.283,0,0,0,1.281-1.281v-2.733a2.749,2.749,0,0,0-2.836-2.647Z" transform="translate(-275.631 -356.189)" fill="#b71c1c"/>
      <path id="Path_5827" data-name="Path 5827" d="M128.8,21.739h.722v1.735a.189.189,0,0,0,.308.148l2.344-1.883h5.2a1.523,1.523,0,0,0,1.521-1.521v-5.7A1.523,1.523,0,0,0,137.377,13H128.8a1.524,1.524,0,0,0-1.523,1.523v5.7a1.523,1.523,0,0,0,1.523,1.521Zm3.392-6.627h3.71a.379.379,0,1,1,0,.757h-3.71a.379.379,0,0,1,0-.757Zm-1.917,0h0a.379.379,0,1,1-.379.379A.379.379,0,0,1,130.274,15.112Zm0,1.879H135.9a.379.379,0,1,1,0,.757h-5.627a.379.379,0,0,1,0-.757Zm0,1.879H135.9a.379.379,0,1,1,0,.757h-5.627a.379.379,0,0,1,0-.757Z" transform="translate(-122.295 -13)" fill="#d32f2f"/>
    </g>
  </g>
</svg>
