<svg xmlns="http://www.w3.org/2000/svg" width="96.2" height="187.194" viewBox="0 0 96.2 187.194">
  <g id="Group_59323" data-name="Group 59323" transform="translate(-423 -277)">
    <rect id="closeup-portrait-satisfied-positive-smiling-young-man-posing-isolated-light-grey-wall-wearing-beige-casual-shirt-black-hat-fashionable-spectacles-yout" width="96.2" height="187.194" rx="7" transform="translate(423 277)" fill="#ffcdd2"/>
    <g id="round-bottom-flask-3-svgrepo-com" transform="translate(336.713 335)">
      <path id="Path_93787" data-name="Path 93787" d="M242.957,4.77a2.385,2.385,0,1,0-2.383-2.387A2.385,2.385,0,0,0,242.957,4.77Z" transform="translate(-108.045)" fill="#d32f2f"/>
      <path id="Path_93788" data-name="Path 93788" d="M241.956,75.184a1.4,1.4,0,1,0-1.4-1.4A1.4,1.4,0,0,0,241.956,75.184Z" transform="translate(-108.027 -62.417)" fill="#d32f2f"/>
      <path id="Path_93789" data-name="Path 93789" d="M270.855,46.6a1.678,1.678,0,1,0,1.68-1.673A1.679,1.679,0,0,0,270.855,46.6Z" transform="translate(-134.157 -38.745)" fill="#d32f2f"/>
      <path id="Path_93790" data-name="Path 93790" d="M150.109,137.24a19.427,19.427,0,0,0-8.2-6.29V119.668a3.577,3.577,0,0,0-2.379-6.25h-9.755a3.577,3.577,0,0,0-2.378,6.25V130.95a19.369,19.369,0,1,0,22.712,6.29ZM129.776,115.8h9.755a1.2,1.2,0,0,1,.438,2.317v-.03H129.387v.048a1.2,1.2,0,0,1,.388-2.334Zm4.878,50.1a16.989,16.989,0,0,1-4.878-33.263v-13.3h9.755v13.3a16.989,16.989,0,0,1-4.877,33.263Z" transform="translate(0 -97.808)" fill="#d32f2f"/>
      <path id="Path_93791" data-name="Path 93791" d="M175.718,363.349c-3.034,0-5.652-.958-8.426-1.972a25.6,25.6,0,0,0-8.995-2.062,17.766,17.766,0,0,0-5.746.99c-.011.223-.017.444-.017.658a14.24,14.24,0,0,0,28.412,1.381A14.347,14.347,0,0,1,175.718,363.349Z" transform="translate(-32.122 -309.862)" fill="#d32f2f"/>
    </g>
  </g>
</svg>
