<svg xmlns="http://www.w3.org/2000/svg" width="198.035" height="65.725" viewBox="0 0 198.035 65.725">
  <g id="Group_58790" data-name="Group 58790" transform="translate(-53.506 -14.246)">
    <path id="Path_93653" data-name="Path 93653" d="M621.654,398.063c0,2.8-.034,5.609,0,8.415a31.163,31.163,0,0,1-7.334,20.5c-5,6.217-11.523,10.326-18.935,13.111A4.63,4.63,0,0,1,591.92,440c-7.995-3.126-14.87-7.742-19.917-14.826a32.755,32.755,0,0,1-6.08-19.393c-.019-5.922,0-11.847-.013-17.771,0-2.348.528-3.156,2.758-4.02q7.995-3.128,16.01-6.217c2.083-.808,4.208-1.515,6.238-2.453a6.686,6.686,0,0,1,5.565-.1c4.774,1.893,9.564,3.726,14.348,5.579,2.607,1.008,5.228,1.978,7.82,3.019,2.672,1.073,3.1,1.837,3.059,4.681-.044,3.189,0,6.379,0,9.568Zm-15.505,9.047c-1.572,5.049-3.131,10-4.652,14.975-.3.982-.686,1.793-1.858,1.788-.964,0-1.572-.644-1.82-1.967-.328-1.75-.57-3.518-.877-5.272q-1.517-8.626-3.055-17.237c-.194-1.094-.362-2.192-.568-3.444-.177.24-.236.288-.253.349q-2.607,9.061-5.2,18.121c-.267.932-.688,1.736-1.818,1.713-1.052-.023-1.561-.722-1.893-1.66-.93-2.56-1.91-5.1-2.878-7.648-.126-.33-.295-.646-.49-1.073a3.981,3.981,0,0,0-.44.539,3.116,3.116,0,0,1-3.446,1.765c-2.224-.149-4.466-.038-6.762-.038,0,.28-.017.518,0,.753a27.185,27.185,0,0,0,3.7,11.7c4.393,7.321,10.94,12.057,18.619,15.407a2.946,2.946,0,0,0,2.422.032,38.055,38.055,0,0,0,16.663-12.16c3.642-4.729,6.011-9.958,6.122-15.989.12-6.415,0-12.833.019-19.252a.97.97,0,0,0-.715-1.081c-7.343-2.807-14.67-5.653-22.03-8.415a4.091,4.091,0,0,0-2.314.029,27.986,27.986,0,0,0-2.918,1.166q-9.343,3.591-18.7,7.172c-.513.2-1.1.263-1.084,1.147.093,4.345.1,8.693.139,13.044v2.769a23.48,23.48,0,0,1,3.787.034c2.6.448,4.38-.345,5.26-2.9a1.972,1.972,0,0,1,.16-.269,1.9,1.9,0,0,1,1.919-1.187,1.956,1.956,0,0,1,1.755,1.435c.755,1.917,1.532,3.827,2.3,5.739.2.484.4.966.688,1.683.534-1.94,1-3.612,1.458-5.287q2.119-7.675,4.241-15.358c.393-1.412.991-1.824,2.234-1.683,1.134.135,1.458.974,1.628,1.9q1.83,9.951,3.635,19.907c.337,1.862.631,3.728.957,5.594a.652.652,0,0,0,.345-.421q1.243-4,2.478-7.995a2.544,2.544,0,0,1,2.331-1.965c1.532-.124,3.074-.191,4.612-.21,1.37,0,2.1.667,2.114,1.793.013,1.214-.8,1.946-2.215,1.963-1.151.019-2.306.006-3.6.006Z" transform="translate(-512.404 -360.414)" fill="#d32f2f"/>
    <text id="KADEAUS" transform="translate(117.541 57.246)" fill="#fff" font-size="29" font-family="Segoe UI" font-weight="700"><tspan x="0" y="0">KADEAUS</tspan></text>
  </g>
</svg>
