<svg xmlns="http://www.w3.org/2000/svg" width="20.615" height="25.398" viewBox="0 0 20.615 25.398">
  <g id="Nurses" transform="translate(0)">
    <path id="Path_93654" data-name="Path 93654" d="M92.978.744A.744.744,0,0,0,92.234,0H81.076a.744.744,0,0,0-.744.744V5.632H92.978ZM87.452,3.932H87.4v.053a.744.744,0,1,1-1.488,0V3.932h-.053a.744.744,0,0,1,0-1.488h.053V2.391a.744.744,0,1,1,1.488,0v.053h.053a.744.744,0,0,1,0,1.488Zm0,0" transform="translate(-76.347 0)" fill="#fff"/>
    <path id="Path_93655" data-name="Path 93655" d="M5.685,335.586v-.039A8.473,8.473,0,0,0,0,343.556a.744.744,0,0,0,.744.744h8.82v-4.151a4.63,4.63,0,0,1-3.879-4.563Zm0,0" transform="translate(0 -318.902)" fill="#fff"/>
    <path id="Path_93656" data-name="Path 93656" d="M226.68,335.547v.039a4.63,4.63,0,0,1-3.879,4.563V344.3h8.82a.744.744,0,0,0,.744-.745A8.473,8.473,0,0,0,226.68,335.547Zm.956,7.106h-2.391a.744.744,0,0,1,0-1.488h2.391a.744.744,0,1,1,0,1.488Zm0,0" transform="translate(-211.749 -318.902)" fill="#fff"/>
    <path id="Path_93657" data-name="Path 93657" d="M150.871,335.964v-.019a7.831,7.831,0,0,1-6.27.005v.014a3.135,3.135,0,1,0,6.27,0Zm0,0" transform="translate(-137.429 -319.28)" fill="#fff"/>
    <path id="Path_93658" data-name="Path 93658" d="M86.655,152.245a6.324,6.324,0,0,0,6.323-6.323v-2.391H80.332v2.391a6.324,6.324,0,0,0,6.323,6.323Zm0,0" transform="translate(-76.347 -136.411)" fill="#fff"/>
    <path id="Path_93659" data-name="Path 93659" d="M366.754,103.408v-1.594a2.336,2.336,0,0,0-1.488-2.178v5.95a2.34,2.34,0,0,0,1.488-2.179Zm0,0" transform="translate(-347.147 -94.694)" fill="#fff"/>
    <path id="Path_93660" data-name="Path 93660" d="M23.308,110.528a.744.744,0,0,0,0-1.488c-.793,0-1.488-1.142-1.488-2.444v-6.96a2.337,2.337,0,0,0-1.488,2.177V106.6a4.7,4.7,0,0,0,.788,2.681A2.708,2.708,0,0,0,23.308,110.528Zm0,0" transform="translate(-19.323 -94.694)" fill="#fff"/>
  </g>
</svg>
