<svg id="patient_3359183" xmlns="http://www.w3.org/2000/svg" width="19.222" height="19.222" viewBox="0 0 19.222 19.222">
  <path id="Path_93694" data-name="Path 93694" d="M13.405,22.407a.8.8,0,0,1-.666-.356L11.375,20H9.8a.8.8,0,0,1,0-1.6h2a.8.8,0,0,1,.666.356l.836,1.254,1.785-3.571A.8.8,0,0,1,15.777,16a.79.79,0,0,1,.718.388L18.664,20h1.549a.8.8,0,0,1,0,1.6h-2a.8.8,0,0,1-.686-.388l-1.652-2.754-1.75,3.5a.8.8,0,0,1-.667.441Z" transform="translate(-1.792 -3.185)" fill="#757575"/>
  <ellipse id="Ellipse_251" data-name="Ellipse 251" cx="4.295" cy="3.937" rx="4.295" ry="3.937" transform="translate(5.726)" fill="#757575"/>
  <path id="Path_93695" data-name="Path 93695" d="M5.606,18.407a2.406,2.406,0,0,1,2.4-2.4h2a2.4,2.4,0,0,1,1.168.3l.688-1.377a2.389,2.389,0,0,1,1.773-1.277A3.992,3.992,0,0,0,10.412,12H4a4.005,4.005,0,0,0-4,4v2.6a.6.6,0,0,0,.6.6H5.754A2.376,2.376,0,0,1,5.606,18.407Z" transform="translate(0 -2.389)" fill="#757575"/>
</svg>
