<svg id="patient_3359183" xmlns="http://www.w3.org/2000/svg" width="26.855" height="26.855" viewBox="0 0 26.855 26.855">
  <path id="Path_93694" data-name="Path 93694" d="M15.154,24.952a1.119,1.119,0,0,1-.931-.5l-1.906-2.859h-2.2a1.119,1.119,0,1,1,0-2.238h2.8a1.12,1.12,0,0,1,.931.5l1.168,1.752,2.494-4.99A1.12,1.12,0,0,1,18.468,16a1.1,1.1,0,0,1,1,.542L22.5,21.595h2.164a1.119,1.119,0,0,1,0,2.238h-2.8a1.117,1.117,0,0,1-.959-.543L18.6,19.443l-2.445,4.891a1.12,1.12,0,0,1-.932.617Z" transform="translate(1.071 1.904)" fill="#fff"/>
  <ellipse id="Ellipse_251" data-name="Ellipse 251" cx="6" cy="5.5" rx="6" ry="5.5" transform="translate(8)" fill="#fff"/>
  <path id="Path_93695" data-name="Path 93695" d="M7.833,20.952a3.361,3.361,0,0,1,3.357-3.357h2.8a3.355,3.355,0,0,1,1.631.422l.961-1.924a3.338,3.338,0,0,1,2.477-1.784A5.577,5.577,0,0,0,14.547,12H5.595A5.6,5.6,0,0,0,0,17.595v3.637a.84.84,0,0,0,.839.839h7.2A3.319,3.319,0,0,1,7.833,20.952Z" transform="translate(0 1.428)" fill="#fff"/>
</svg>
