<svg xmlns="http://www.w3.org/2000/svg" width="20.318" height="25.398" viewBox="0 0 20.318 25.398">
  <path id="Pharmacists" d="M24.318,5.81V8.35a1.274,1.274,0,0,1-1.27,1.27H17.969V7.08a1.27,1.27,0,1,0-2.54,0V9.62h-2.54V7.08a1.27,1.27,0,1,0-2.54,0V9.62H5.27A1.274,1.274,0,0,1,4,8.35V5.81A3.821,3.821,0,0,1,7.81,2h12.7A3.821,3.821,0,0,1,24.318,5.81Zm-1.27,7.62V23.589a3.821,3.821,0,0,1-3.81,3.81H9.079a3.821,3.821,0,0,1-3.81-3.81V13.429a1.274,1.274,0,0,1,1.27-1.27H21.778A1.274,1.274,0,0,1,23.048,13.429Zm-5.079,6.35a1.274,1.274,0,0,0-1.27-1.27h-1.27v-1.27a1.27,1.27,0,1,0-2.54,0v1.27h-1.27a1.27,1.27,0,0,0,0,2.54h1.27v1.27a1.27,1.27,0,1,0,2.54,0v-1.27H16.7A1.274,1.274,0,0,0,17.969,19.779Z" transform="translate(-4 -2)" fill="#fff"/>
</svg>
