<svg id="Receptionists" xmlns="http://www.w3.org/2000/svg" width="25.398" height="25.399" viewBox="0 0 25.398 25.399">
  <path id="Path_93676" data-name="Path 93676" d="M91.254,180.345v-.167a4.346,4.346,0,0,1-1.488-.55v.718a.744.744,0,1,0,1.488,0Z" transform="translate(-85.313 -170.716)" fill="#fff" fill-rule="evenodd"/>
  <path id="Path_93677" data-name="Path 93677" d="M27.694,171.74a2.231,2.231,0,0,1-3.72-1.662v-1.253l-.671.326a2.078,2.078,0,0,0-1.2,1.878v2.815H33.283v-2.815a2.078,2.078,0,0,0-1.2-1.88l-.668-.317v1.246a2.231,2.231,0,0,1-3.72,1.662Z" transform="translate(-21.009 -160.45)" fill="#fff" fill-rule="evenodd"/>
  <path id="Path_93678" data-name="Path 93678" d="M151.254,180.345v-.717a4.346,4.346,0,0,1-1.488.55v.167a.744.744,0,1,0,1.488,0Z" transform="translate(-142.337 -170.717)" fill="#fff" fill-rule="evenodd"/>
  <path id="Path_93679" data-name="Path 93679" d="M24.654,300H.744a.744.744,0,0,0-.744.744v1.488a.744.744,0,0,0,.744.744H24.654a.744.744,0,0,0,.744-.744v-1.488A.744.744,0,0,0,24.654,300Z" transform="translate(0 -285.118)" fill="#fff" fill-rule="evenodd"/>
  <path id="Path_93680" data-name="Path 93680" d="M20.959,395.308a.744.744,0,0,0,.744.744H43.529a.744.744,0,0,0,.744-.744V390H20.959Z" transform="translate(-19.919 -370.653)" fill="#fff" fill-rule="evenodd"/>
  <path id="Path_93681" data-name="Path 93681" d="M78.5,23.837a4.473,4.473,0,0,0,3.582-1.928,2.889,2.889,0,0,0-4.462,1.83A4.031,4.031,0,0,0,78.5,23.837Z" transform="translate(-73.773 -20.345)" fill="#fff" fill-rule="evenodd"/>
  <path id="Path_93682" data-name="Path 93682" d="M76.532,57v.248a2.889,2.889,0,1,0,5.777,0v-1.2a2.877,2.877,0,0,0-.275-1.231,5.885,5.885,0,0,1-4.568,2.26A5.513,5.513,0,0,1,76.532,57Z" transform="translate(-72.736 -52.102)" fill="#fff" fill-rule="evenodd"/>
  <path id="Path_93683" data-name="Path 93683" d="M281.744,76.136h2.232v-.942a2.232,2.232,0,1,1,4.465,0v.942h2.232a.744.744,0,0,0,.744-.744V68.744a.744.744,0,0,0-.744-.744h-8.929a.744.744,0,0,0-.744.744v6.647A.744.744,0,0,0,281.744,76.136Z" transform="translate(-267.061 -64.627)" fill="#fff" fill-rule="evenodd"/>
  <path id="Path_93684" data-name="Path 93684" d="M14.149,4.6V3.951a4.375,4.375,0,0,1,1.888-3.6A2.344,2.344,0,1,0,14.149,4.6Z" transform="translate(-11.841 0)" fill="#fff" fill-rule="evenodd"/>
  <path id="Path_93685" data-name="Path 93685" d="M371,198.744v2.828h1.488v-2.828a.744.744,0,1,0-1.488,0Z" transform="translate(-352.597 -188.178)" fill="#fff" fill-rule="evenodd"/>
</svg>
