<svg xmlns="http://www.w3.org/2000/svg" width="20.334" height="21.404" viewBox="0 0 20.334 21.404">
  <path id="Settings" d="M15.071,2.163A5.417,5.417,0,0,0,13.167,2a5.417,5.417,0,0,0-1.9.163A2.149,2.149,0,0,0,10.1,3.321a2.62,2.62,0,0,0-.154.924A1.728,1.728,0,0,1,9.09,5.693,1.755,1.755,0,0,1,7.4,5.7a2.671,2.671,0,0,0-.883-.329A2.169,2.169,0,0,0,4.922,5.8,5.339,5.339,0,0,0,3.828,7.351a5.318,5.318,0,0,0-.81,1.718,2.129,2.129,0,0,0,.427,1.582,2.653,2.653,0,0,0,.729.595,1.685,1.685,0,0,1,0,2.913,2.655,2.655,0,0,0-.729.595,2.128,2.128,0,0,0-.427,1.582,5.319,5.319,0,0,0,.81,1.718,5.338,5.338,0,0,0,1.094,1.555,2.169,2.169,0,0,0,1.594.424A2.672,2.672,0,0,0,7.4,19.7a1.755,1.755,0,0,1,1.69.008,1.728,1.728,0,0,1,.852,1.448,2.62,2.62,0,0,0,.154.924,2.149,2.149,0,0,0,1.167,1.158,5.419,5.419,0,0,0,1.9.163,5.419,5.419,0,0,0,1.9-.163,2.149,2.149,0,0,0,1.167-1.158,2.619,2.619,0,0,0,.154-.924,1.728,1.728,0,0,1,.852-1.448,1.755,1.755,0,0,1,1.69-.008,2.671,2.671,0,0,0,.883.329,2.168,2.168,0,0,0,1.594-.424,5.338,5.338,0,0,0,1.094-1.555,5.32,5.32,0,0,0,.81-1.718,2.129,2.129,0,0,0-.427-1.582,2.654,2.654,0,0,0-.729-.595,1.685,1.685,0,0,1,0-2.913,2.653,2.653,0,0,0,.729-.595,2.129,2.129,0,0,0,.427-1.582,5.321,5.321,0,0,0-.81-1.718A5.338,5.338,0,0,0,21.412,5.8a2.169,2.169,0,0,0-1.594-.424,2.67,2.67,0,0,0-.883.329,1.755,1.755,0,0,1-1.69-.008,1.729,1.729,0,0,1-.852-1.448,2.619,2.619,0,0,0-.154-.924A2.148,2.148,0,0,0,15.071,2.163Zm-1.9,13.75A3.211,3.211,0,1,0,9.932,12.7,3.223,3.223,0,0,0,13.167,15.913Z" transform="translate(-3 -2)" fill="#757575" fill-rule="evenodd"/>
</svg>
