<svg xmlns="http://www.w3.org/2000/svg" width="57" height="57" viewBox="0 0 57 57">
  <g id="Video_Call" data-name="Video Call" transform="translate(-63 -797)">
    <rect id="Rectangle_564" data-name="Rectangle 564" width="57" height="57" rx="28.5" transform="translate(63 797)" fill="#ffe5e8"/>
    <g id="smartphone_721701" transform="translate(79.453 811.358)">
      <g id="Group_1671" data-name="Group 1671" transform="translate(0 0)">
        <g id="Group_1670" data-name="Group 1670">
          <path id="Path_5828" data-name="Path 5828" d="M31.3,8.761a3.289,3.289,0,0,1-3.285-3.285V0H19.255a2.2,2.2,0,0,0-2.19,2.19v21.9a2.2,2.2,0,0,0,2.19,2.19H32.4a2.2,2.2,0,0,0,2.19-2.19V8.761Zm-5.476,0a2.19,2.19,0,1,1-2.19,2.19A2.19,2.19,0,0,1,25.826,8.761Zm1.1,15.332h-2.19a1.1,1.1,0,1,1,0-2.19h2.19a1.1,1.1,0,1,1,0,2.19Zm-5.475-5.475a3.286,3.286,0,0,1,3.285-3.285h2.19a3.286,3.286,0,0,1,3.285,3.285Z" transform="translate(-17.065)" fill="#b71c1c"/>
        </g>
      </g>
      <g id="Group_1673" data-name="Group 1673" transform="translate(13.142 0)">
        <g id="Group_1672" data-name="Group 1672">
          <path id="Path_5829" data-name="Path 5829" d="M230.626,2.19V1.1a1.1,1.1,0,0,0-1.1-1.1H222.96a1.1,1.1,0,0,0-1.1,1.1V5.476a1.1,1.1,0,0,0,1.1,1.1h6.571a1.1,1.1,0,0,0,1.1-1.1V4.38l2.19,2.19V0Z" transform="translate(-221.865)" fill="#d32f2f"/>
        </g>
      </g>
    </g>
  </g>
</svg>
